<svg width="95" height="16" viewBox="0 0 95 16" fill="none" xmlns="http://www.w3.org/2000/svg">
<path d="M0.292893 7.29289C-0.0976311 7.68342 -0.0976311 8.31658 0.292893 8.70711L6.65685 15.0711C7.04738 15.4616 7.68054 15.4616 8.07107 15.0711C8.46159 14.6805 8.46159 14.0474 8.07107 13.6569L2.41421 8L8.07107 2.34315C8.46159 1.95262 8.46159 1.31946 8.07107 0.928932C7.68054 0.538408 7.04738 0.538408 6.65685 0.928932L0.292893 7.29289ZM94.7071 8.70711C95.0976 8.31658 95.0976 7.68342 94.7071 7.29289L88.3431 0.928932C87.9526 0.538408 87.3195 0.538408 86.9289 0.928932C86.5384 1.31946 86.5384 1.95262 86.9289 2.34315L92.5858 8L86.9289 13.6569C86.5384 14.0474 86.5384 14.6805 86.9289 15.0711C87.3195 15.4616 87.9526 15.4616 88.3431 15.0711L94.7071 8.70711ZM1 9H94V7H1V9Z" fill="#0088DA" fill-opacity="0.25"/>
</svg>
