<svg width="828" height="597" viewBox="0 0 828 597" fill="none" xmlns="http://www.w3.org/2000/svg">
<path d="M453.969 0.992853H471.733L488.51 4.96427L502.327 11.9142L514.169 20.8499L526.012 31.7713L538.841 45.6713L546.737 55.5998L558.579 69.4997L568.448 79.4283L582.265 90.3497L598.055 103.257L607.924 112.192L619.766 123.114L637.53 140.985L644.439 148.928L655.294 161.835L667.137 177.721L679.967 195.592L702.665 230.342L718.455 255.163L735.232 282.963L751.023 309.77L766.813 338.563L781.616 366.363L796.42 396.148L811.223 429.905L821.092 456.713L827.013 477.562L828 482.527V491.462L824.052 496.427L815.17 494.441L799.38 487.491L778.656 474.584L766.813 465.648V468.627L772.734 482.527L781.616 508.341L796.42 549.048L797.406 558.976L793.459 564.934L788.525 568.905L763.852 569.898L752.997 570.891L747.075 573.869L735.232 584.791L727.337 592.733L719.442 596.705H713.521L707.6 592.733L703.652 587.769L700.691 577.841L695.757 552.026L686.875 500.398L677.006 439.834L676.019 425.934H681.94L684.901 432.884L693.783 470.612L706.613 522.241L716.482 564.934L719.442 570.891L726.35 566.919L737.206 555.998V548.055L726.35 494.441L723.39 481.534L724.377 476.57L729.311 477.562L733.259 486.498L746.088 524.227L752.997 544.084L754.97 550.041H777.669L774.708 537.134L760.892 498.412L750.036 465.648L745.101 451.748L736.219 443.805L717.468 429.905L700.691 416.006L690.823 408.063L677.006 396.148L665.163 385.227L657.268 378.277L641.478 363.384L611.871 333.599L604.963 325.656L596.081 315.727L587.199 304.806L575.356 289.913L562.527 272.042L549.697 252.185L537.855 231.335L526.012 206.514L517.13 181.692L510.222 155.878V149.921L515.156 150.914L520.091 158.857L530.946 182.685L543.776 208.499L557.592 232.328L567.461 248.213L580.291 267.078L594.107 285.942L606.937 301.827L617.793 314.735L631.609 329.627L661.216 359.413L669.111 366.363L682.927 378.277L695.757 389.198L709.573 400.12L727.337 414.02L746.088 427.92L762.865 439.834L782.603 453.734L798.393 464.655L805.302 469.62L802.341 460.684L785.564 419.977L773.721 394.163L756.944 360.406L746.088 340.549L740.167 328.634L729.311 309.77L719.442 292.892L705.626 270.056L691.809 248.213L674.045 221.406L659.242 199.564L645.426 180.699L636.544 169.778L624.701 155.878L612.858 142.971L593.12 123.114L582.265 114.178L564.501 100.278L551.671 89.3568L542.789 80.4211L533.907 69.4997L522.064 55.5998L515.156 47.657L502.327 34.7499L488.51 25.8142L478.641 21.8428L473.707 20.8499H452.982L442.126 23.8285L431.271 30.7785L424.362 37.7284L416.467 53.6141L411.533 65.5283L403.638 79.4283L401.664 82.4068H420.415L419.428 87.3711L409.559 102.264L417.454 99.2853L427.323 98.2925H441.139L453.969 101.271L461.864 106.235L466.799 111.2L471.733 119.142L476.668 138.007L483.576 185.664L487.523 204.528L492.458 219.421L504.3 244.242L516.143 262.113L525.025 274.028L535.881 286.935L537.855 290.906H539.828L546.737 298.849L552.658 305.799V310.763L546.737 309.77L536.868 300.835L526.012 291.899L504.3 270.056L491.471 253.178L482.589 239.278L475.681 225.378L468.772 204.528L462.851 175.735L456.93 138.007L453.969 127.085L450.021 120.135L442.126 116.164L438.179 115.171H414.493L395.743 118.15L387.847 120.135L388.834 114.178L397.716 98.2925L398.703 95.3139H373.044L375.018 89.3568L381.926 79.4283L391.795 61.5569L398.703 47.657L403.638 35.7427L410.546 24.8213L420.415 14.8928L433.244 6.94997L444.1 2.97856L453.969 0.992853Z" fill="#027EC8" fill-opacity="0.05"/>
<path d="M127.309 225.378H140.138L139.151 231.335L134.217 239.278L132.243 240.271L108.558 243.249L87.8332 248.213L75.9905 253.178L70.0691 258.142L69.0823 264.099L72.0429 269.063L79.938 276.013L95.7283 283.956L106.584 287.928L120.401 289.913L130.269 287.928L145.073 281.97L149.02 280.978H168.758L191.457 286.935L215.142 296.863L233.893 305.799L235.867 308.777L227.971 318.706L218.103 315.727L194.417 306.792L176.653 301.827L157.902 299.842L144.086 302.82L129.283 307.785L120.401 309.77L113.492 308.777L97.702 304.806L79.938 296.863L71.056 290.906L66.1216 287.928V298.849L72.0429 310.763L80.9249 320.692L92.7676 329.627L105.597 337.57L122.374 344.52L126.322 346.506L128.296 351.47L129.283 359.413L128.296 360.406L117.44 359.413L100.663 354.449L84.8725 346.506L76.9774 341.542V351.47L80.9249 361.399L91.7807 375.299L106.584 391.184L112.505 395.156L117.44 396.149L132.243 393.17H153.955L169.745 399.127L185.535 408.063L202.312 419.977L212.181 428.913L215.142 430.898V432.884L219.089 434.87L221.063 436.856V440.827L215.142 444.798L211.194 448.77L206.26 446.784L202.312 441.82L185.535 428.913L169.745 418.984L156.915 413.027L148.033 410.048H134.217L123.361 413.027L56.2527 440.827L36.5149 449.763L28.6198 454.727L27.6329 456.713H25.6591L23.6853 461.677L21.7116 468.627L20.7247 498.412L18.7509 502.384L13.8165 505.362L3.94756 506.355L1.97378 504.37V499.405H0.986889L0 485.505L1.97378 481.534L2.96067 463.663L6.90823 453.734L13.8165 444.798L22.6985 437.848L38.4887 429.906L68.0954 416.998L92.7676 407.07H94.7414V405.084L90.7938 403.099L79.938 391.184L70.0691 379.27L63.1609 368.349L59.2134 360.406L57.2396 347.499L59.2134 334.592V325.656L52.3051 314.735L45.3969 302.82L44.41 299.842V289.913L47.3707 279.985V273.035L44.41 265.092V258.142L50.3314 249.206L58.2265 243.249L72.0429 236.299L91.7807 230.342L114.479 226.371L127.309 225.378ZM1.97378 483.52V488.484H2.96067V483.52H1.97378Z" fill="#027EC8" fill-opacity="0.05"/>
<path d="M36.5149 0L48.3576 1.98571L58.2265 6.94998L62.174 9.92853H74.0167L83.8856 11.9142L95.7283 17.8714L104.61 25.8142L110.532 35.7427L114.479 43.6856L122.374 46.6641L129.282 52.6212L132.243 57.5855H133.23L135.204 46.6641L142.112 32.7642L148.033 25.8142L158.889 18.8642L170.732 14.8928L177.64 7.94283L189.483 1.98571L192.443 0.992854H206.26L217.116 4.96427L225.011 10.9214L231.919 19.8571L235.867 29.7856V42.6927L229.945 54.6069L227.971 57.5855V72.4783L224.024 82.4068L218.103 90.3497L210.207 97.2996L203.299 101.271L201.325 108.221L193.43 117.157L182.575 122.121L174.679 124.107H165.797L163.824 123.114L164.811 118.15L178.627 110.207L183.561 105.242H185.535L191.457 90.3497L199.352 85.3854L205.273 80.4211H207.247L211.194 70.4926V60.5641L210.207 53.6141L216.129 46.6641L217.116 43.6856V31.7713L212.181 23.8285L204.286 19.8571H195.404L188.496 22.8356L180.601 30.7785L169.745 32.7642L161.85 36.7356L156.915 41.6998L150.994 50.6355L149.02 59.5712L146.06 66.5212L140.138 76.4497L135.204 91.3425L131.256 90.3497L128.296 83.3997L124.348 71.4855L120.4 65.5283L119.414 62.5498L114.479 60.5641L102.636 56.5926V54.6069H100.663L96.7151 43.6856L91.7807 36.7356L80.9249 29.7856L67.1085 26.807H60.2002L56.2527 27.7999L48.3576 21.8428L39.4756 19.8571L29.6067 21.8428L22.6985 29.7856L20.7247 39.7141L23.6853 48.6498L31.5805 56.5926L36.5149 74.464L43.4231 84.3925L52.3051 90.3497L60.2002 93.3282L70.0691 95.3139L76.9774 106.235L87.8331 113.185L100.663 117.157L103.623 121.128L101.65 124.107L89.8069 127.085L81.9118 131.057L75.0036 136.021L60.2002 137.014L47.3707 140.985L38.4887 146.942L31.5805 160.842L25.6591 164.814L20.7247 174.742L21.7116 184.671L25.6591 191.621L31.5805 195.592L35.528 196.585H42.4362L49.3445 193.606L53.292 190.628L59.2134 192.614L64.1478 194.599H75.9905L85.8594 189.635L93.7545 181.692L106.584 180.699L119.414 175.735L128.296 169.778L133.23 165.807H135.204L136.191 171.764L132.243 179.706L124.348 188.642L116.453 193.606L100.663 197.578L89.8069 206.514L79.938 210.485L75.0036 211.478H65.1347L56.2527 210.485L48.3576 214.456L45.3969 215.449H31.5805L21.7116 212.471L12.8296 205.521L6.90823 198.571L2.96067 190.628V168.785L6.90823 160.842L10.8558 155.878H12.8296V153.892L17.764 150.914L23.6853 138.999L31.5805 131.057L41.4493 126.092L49.3445 123.114L69.0822 121.128L62.174 113.185V110.207H55.2658L43.4231 106.235L32.5673 98.2925L24.6722 88.364L18.7509 76.4497L16.7771 66.5212L6.90823 55.5998L2.96067 48.6498V26.807L7.89511 16.8785L15.7902 7.94283L27.6329 1.98571L36.5149 0Z" fill="#027EC8" fill-opacity="0.05"/>
<path d="M598.055 363.384L602.989 364.377L608.911 368.349L613.845 371.327L612.858 376.291L602.002 396.149L595.094 407.07L583.252 422.956L571.409 436.856L557.592 450.755L543.776 461.677L532.92 469.62L516.143 479.548L499.366 487.491L483.576 492.455L460.877 495.434L427.323 496.427L356.267 497.42L337.516 500.398L314.818 506.355L301.001 508.341H287.185L272.381 505.362L259.552 500.398L245.735 492.455L235.867 484.513L228.958 488.484L216.129 499.405L203.299 509.334L187.509 521.248L171.719 534.155L156.915 543.091L145.073 548.055L133.23 551.034L126.322 552.027H110.532L109.545 551.034V544.084L112.505 538.127L114.479 536.141L134.217 534.155L149.02 529.191L159.876 522.241L164.811 516.284L167.771 504.37V487.491L165.797 478.555L159.876 469.62L149.02 462.67L136.191 457.705L131.256 455.72L132.243 452.741L144.086 445.791L152.968 447.777L167.771 455.72L176.653 464.655L181.588 474.584L183.561 482.527V502.384L200.339 489.477L219.089 475.577L234.88 463.663L248.696 453.734L255.604 447.777L259.552 448.77L263.499 454.727L265.473 459.691L254.617 468.627L250.67 470.613V472.598L264.486 481.534L276.329 486.498L286.198 488.484H302.975L320.739 484.513L341.464 479.548L353.306 477.563L366.136 476.57L464.825 475.577L477.654 473.591L492.458 469.62L511.209 460.684L525.025 451.748L540.815 439.834L555.619 425.934L562.527 417.991H564.501L566.474 414.02L579.304 397.141L589.173 381.256L595.094 370.334L598.055 363.384Z" fill="#027EC8" fill-opacity="0.05"/>
<path d="M545.75 335.584L551.671 336.577L561.54 342.534L559.566 346.506L547.724 353.456L535.881 362.391L526.012 371.327L516.143 381.256L506.274 394.163L498.379 406.077L491.471 416.998H505.287L518.117 413.027L531.933 405.084L540.815 398.134L547.724 394.163L548.71 395.156V408.063L545.75 413.027L534.894 420.97L520.091 428.913L508.248 432.884L503.314 433.877H476.668L460.877 441.82L445.087 447.777L417.454 454.727L391.795 458.698L370.083 460.684L348.372 461.677H329.621L328.634 456.713L332.582 448.77L335.542 446.784L356.267 445.791L395.743 441.82L401.664 440.827L393.769 424.941L385.874 416.006L376.005 411.041L365.149 412.034L344.424 418.984L314.818 431.891L295.08 441.82L291.132 440.827L286.198 433.877L284.224 432.884L286.198 428.913L318.765 412.034L343.437 401.113L363.175 394.163L368.11 393.17H381.926L391.795 397.141L401.664 405.084L410.546 416.006L418.441 430.898L419.428 436.855L442.126 429.906L458.904 422.956L467.786 416.006H469.759V414.02L474.694 409.056L485.549 394.163L494.432 381.256L506.274 368.349L523.051 351.47L536.868 341.542L545.75 335.584Z" fill="#027EC8" fill-opacity="0.05"/>
<path d="M284.224 56.5926H295.08L310.87 60.5641L325.673 66.5212L331.595 67.514L359.228 68.5069L357.254 73.4712L350.346 83.3997L344.424 91.3425V94.3211L363.175 107.228V111.2L348.372 116.164L334.555 123.114L326.66 129.071L322.713 131.057L320.739 135.028L312.844 141.978L308.896 139.992L312.844 129.071L319.752 119.142L328.634 110.207L336.529 106.235H338.503L333.569 101.271L326.66 97.2996L327.647 92.3354H329.621L331.595 88.364L334.555 83.3997H325.673L309.883 78.4354L300.014 75.4569H284.224L274.355 79.4283L267.447 85.3854L261.526 97.2996L252.644 128.078L244.749 143.964L237.84 154.885L226.985 168.785L218.103 178.714L207.247 192.614L198.365 204.528L187.509 223.392L175.666 246.228L167.771 262.113L165.797 265.092H147.047L148.033 260.128L159.876 234.313L167.771 218.428L176.653 202.542L186.522 188.642L197.378 174.742L208.234 162.828L213.168 155.878H215.142L217.116 151.907L225.011 140.985L231.919 127.085L236.853 111.2L243.762 89.3568L248.696 79.4283L256.591 69.4997L264.486 63.5426L274.355 58.5784L284.224 56.5926Z" fill="#027EC8" fill-opacity="0.05"/>
<path d="M379.952 145.949H381.926L380.939 151.907L373.044 170.771V173.749L394.756 182.685V186.656L383.9 194.599L376.005 202.542L367.123 214.456L359.228 230.342L355.28 241.263L351.333 259.135L350.346 278.992L348.372 285.942H344.424L341.464 277.006L338.503 256.156L339.49 243.249L342.451 229.349L347.385 216.442L355.28 202.542L364.162 191.621L369.097 186.656L366.136 184.671L355.28 180.699L357.254 174.742L362.188 164.814L354.293 167.792H339.49L332.582 166.799H318.765L308.896 169.778L300.014 176.728L294.093 186.656L292.119 191.621L290.145 214.456L286.198 230.342L277.316 246.228L263.499 266.085L251.657 282.963L244.749 292.892L240.801 291.899L227.971 284.949L231.919 277.999L240.801 265.092L250.67 251.192L262.513 235.306L268.434 223.392L270.408 213.464L273.368 190.628L276.329 179.706L282.25 168.785L291.132 158.857L301.988 151.907L311.857 148.928L316.791 147.935H327.647L344.424 150.914H358.241L374.031 147.935L379.952 145.949Z" fill="#027EC8" fill-opacity="0.05"/>
<path d="M708.587 18.8642H726.351L724.377 24.8213L715.495 45.6713L710.56 61.5569L708.587 75.4569V82.4068L711.547 89.3568L712.534 91.3425L721.416 93.3282L741.154 89.3568L780.629 76.4497L808.262 66.5212H810.236L811.223 82.4068L808.262 85.3854L774.708 97.2996L744.115 107.228L729.311 110.207H710.56L701.678 106.235L694.77 98.2925L690.823 87.3711L689.836 79.4283L683.914 88.364L674.045 104.25L666.15 116.164L657.268 128.078L653.321 129.071L644.439 119.142L643.452 115.171L650.36 108.221L657.268 98.2925L673.058 75.4569L686.875 53.6141L698.718 34.7499L707.6 19.8571L708.587 18.8642Z" fill="#027EC8" fill-opacity="0.05"/>
<path d="M156.915 316.72H169.745L178.627 319.699L187.509 327.642L195.404 341.542L208.234 365.37L217.116 377.284L224.024 384.234L237.84 392.177L246.722 395.156L254.617 396.149H265.473L278.303 394.163L294.093 389.199L309.883 382.249L314.818 379.27H317.778L320.739 388.206V393.17L304.949 401.113L286.198 408.063L268.434 411.041H250.67L234.88 408.063L219.089 400.12L206.26 390.191L197.378 380.263L195.404 375.299L186.522 376.291L174.679 378.277H146.06L143.099 375.299L140.138 369.341V364.377L171.719 362.392L184.548 360.406L176.653 344.52L171.719 337.57L166.784 334.592L156.915 333.599L142.112 336.577L136.191 338.563L131.256 337.57L126.322 330.62L127.309 326.649L144.086 319.699L156.915 316.72Z" fill="#027EC8" fill-opacity="0.05"/>
<path d="M509.235 311.756L514.169 312.749L521.078 317.713V322.677L516.143 327.642L505.287 341.542L492.458 357.427L491.471 359.413H489.497L487.523 363.384L484.563 367.356H482.589L480.615 371.327L467.786 384.234L457.917 391.184L448.048 395.156H437.192L431.271 392.177L423.375 383.241L418.441 370.334L417.454 358.42L391.795 363.384L375.018 368.349L354.293 377.284L338.503 386.22H335.542L333.569 378.277V371.327L361.202 357.427L380.939 349.484L402.651 343.527L424.362 339.556L432.258 338.563L435.218 341.542L436.205 359.413L438.179 369.341L440.153 374.306L443.113 376.291L450.022 375.299L458.904 369.341L470.746 358.42L473.707 354.449H475.681L477.654 350.477L488.51 338.563L499.366 324.663L507.261 314.735L509.235 311.756Z" fill="#027EC8" fill-opacity="0.05"/>
<path d="M824.052 102.264H828V119.142L827.013 121.128L793.459 134.035L766.813 144.957L758.918 148.928L757.931 151.907L775.695 150.914L802.341 146.942L809.249 145.949L811.223 147.935L810.236 159.849L805.302 161.835L772.734 166.799L731.285 168.785L716.482 171.764L701.678 176.728L695.757 179.706L691.809 177.721L685.888 169.778L683.914 164.814L729.311 141.978L767.8 125.1L794.446 114.178L822.079 103.257L824.052 102.264Z" fill="#027EC8" fill-opacity="0.05"/>
<path d="M299.027 299.842H303.962L311.857 308.777L307.909 312.749L285.211 322.677L267.447 332.606L257.578 340.549L252.644 346.506L251.657 350.477L254.617 356.434L261.526 358.42H271.395L288.172 355.441L302.975 350.477L323.7 341.542L334.555 336.577H339.49L347.385 344.52V346.506L331.595 354.449L312.844 363.384L289.159 371.327L273.368 374.306H253.631L244.749 371.327L236.853 364.377L233.893 357.427V348.492L238.827 338.563L245.735 330.62L261.526 318.706L277.316 309.77L299.027 299.842Z" fill="#027EC8" fill-opacity="0.05"/>
<path d="M486.536 289.913L490.484 290.906L496.405 295.87L498.379 298.849L497.392 302.82L478.641 310.763L461.864 315.727L451.995 317.713H424.362L384.887 313.742H375.018L354.293 316.72L338.503 321.685L334.555 319.699L329.621 313.742V309.77L336.529 305.799L346.398 300.835L363.175 296.863L372.057 295.87H387.847L424.362 299.842H452.982L470.746 295.87L485.549 290.906L486.536 289.913Z" fill="#027EC8" fill-opacity="0.05"/>
<path d="M624.701 249.206L630.622 251.192L639.504 261.12L648.386 272.042L655.294 278.992L664.176 289.913L679.967 306.792L681.94 310.763L684.901 311.756L691.809 319.699L733.259 361.399L741.154 368.349L747.075 374.306V379.27L741.154 378.277L727.337 368.349L713.521 357.427L702.665 348.492L691.809 338.563L683.914 331.613L668.124 315.727L659.242 304.806L648.386 291.899L635.557 273.035L627.662 260.128L623.714 252.185L624.701 249.206Z" fill="#027EC8" fill-opacity="0.05"/>
<path d="M135.204 117.157L139.151 119.142L148.033 130.064L159.876 145.949L169.745 161.835L173.692 167.792L172.706 173.749L166.784 180.699L163.824 184.671L160.863 183.678L150.994 162.828L139.151 140.985L131.256 128.078L130.269 127.085V122.121L135.204 117.157Z" fill="#027EC8" fill-opacity="0.05"/>
<path d="M387.847 228.356H450.021L451.995 230.342L454.956 238.285V242.256H380.939L381.926 237.292L387.847 228.356Z" fill="#027EC8" fill-opacity="0.05"/>
<path d="M187.509 48.6498L192.443 49.6427L191.457 54.6069L184.548 64.5355L171.719 85.3854L160.863 102.264L156.915 104.25V102.264L152.968 100.278L150.994 96.3068L162.837 74.464L174.679 60.5641L179.614 55.5998L187.509 48.6498Z" fill="#027EC8" fill-opacity="0.05"/>
<path d="M53.292 48.6498L60.2002 49.6427L75.9905 57.5855L88.82 66.5212L101.65 78.4354L106.584 84.3925L102.636 92.3354L98.6889 91.3425L87.8331 82.4068L75.0036 71.4855L61.1871 60.5641L53.292 52.6212V48.6498Z" fill="#027EC8" fill-opacity="0.05"/>
<path d="M104.61 143.964H110.532L113.492 146.942L114.479 151.907L109.545 154.885L65.1347 169.778L57.2396 172.756L53.292 171.764L54.2789 167.792L62.174 160.842L80.9249 150.914L96.7151 145.949L104.61 143.964Z" fill="#027EC8" fill-opacity="0.05"/>
<path d="M443.113 42.6927L451.995 43.6856L458.904 47.657L460.877 49.6427V54.6069L451.995 62.5498L441.139 68.5069L437.192 66.5212L433.244 61.5569L432.258 54.6069L437.192 46.6641L440.153 43.6856L443.113 42.6927Z" fill="#027EC8" fill-opacity="0.05"/>
<path d="M294.093 86.3783L301.001 87.3711L309.883 93.3282V98.2925L301.001 106.235L292.119 109.214L288.172 107.228L285.211 103.257V96.3068L289.159 90.3497L294.093 86.3783Z" fill="#027EC8" fill-opacity="0.05"/>
<path d="M327.647 176.728L335.542 177.721L342.451 182.685V188.642L333.569 197.578L329.621 199.564L322.713 198.571L319.752 194.599V184.671L323.7 178.714L327.647 176.728Z" fill="#027EC8" fill-opacity="0.05"/>
</svg>
