<svg width="219" height="81" viewBox="0 0 219 81" fill="none" xmlns="http://www.w3.org/2000/svg">
<path d="M0.950796 47.4055H4.12012L4.59551 47.6284L4.99168 47.9256L5.70478 48.9659L6.89327 50.9721L7.6856 52.2352L8.55716 53.7213L9.66643 55.5046L10.6965 57.2878L11.2511 58.2538L11.4096 58.3281L11.3303 57.9566V48.2971L11.568 47.777H11.7265L11.8849 47.4798L12.0434 47.4055H39.5373L39.9334 47.6284L40.0127 47.777V49.6346L39.6957 49.8575L38.9826 49.9318H14.975L14.8958 50.0804L14.8166 63.0092L14.2619 63.6036L14.1035 63.6779H11.2511L10.6172 63.3807L10.0626 62.8606L9.03256 61.2259L7.84407 59.2197L5.94247 56.099L4.91245 54.39L3.80318 52.6067L3.72395 62.9349L3.48625 63.3064L3.16932 63.6036L2.93162 63.6779H0.950796L0.316932 63.2321V63.0835L0.158466 63.0092V48.5944L0.316932 47.8513L0.713097 47.4798L0.950796 47.4055Z" fill="#272D4E"/>
<path d="M184.454 3.56656H192.298L193.408 3.64086L194.675 4.01238L195.706 4.5325L196.498 5.20123L196.973 5.79566L197.369 6.53869L197.607 7.43033V8.54488L197.369 9.58512L196.973 10.3282L196.339 11.0712L195.706 11.517L195.389 11.6656L196.498 12.26L197.211 12.7802L197.845 13.3746L198.399 14.4148L198.558 14.8607L198.637 15.3808V16.7182L198.32 17.7585L198.003 18.3529L197.449 19.0216L196.736 19.6161L195.468 20.2105L194.438 20.5077L193.566 20.6563L192.695 20.7306H184.454L183.9 20.5077L183.424 20.1362L183.028 19.6161L182.949 19.3189V4.97832L183.345 4.23529L183.9 3.78947L184.454 3.56656ZM186.99 6.98451V10.4768H190.872L191.902 10.3282L192.615 10.1052L193.17 9.65943L193.408 9.21361L193.487 8.9164V8.39627L193.249 7.72754L192.695 7.28172L191.982 6.98451H186.99ZM186.99 13.6718V17.3127H192.695L193.566 17.0155L194.121 16.6439L194.438 16.0495L194.517 15.7523V15.2322L194.2 14.4891L193.645 14.0433L192.774 13.7461L192.14 13.6718H186.99Z" fill="#272D4E"/>
<path d="M36.4472 1.11455H37.8734L39.2203 1.41176L40.3296 1.93189L41.2804 2.60062L42.2312 3.41795L43.2612 4.4582L43.8951 5.20123L44.8459 6.24148L45.6382 6.98451L46.7475 7.80185L48.0152 8.76779L48.8075 9.43652L49.7583 10.2539L51.1845 11.5913L51.7391 12.1857L52.6107 13.1517L53.5615 14.3405L54.5915 15.678L56.4139 18.2786L57.6816 20.1362L59.0286 22.2167L60.2963 24.2229L61.564 26.3777L62.7525 28.4582L63.941 30.6873L65.1295 33.2136L65.9219 35.2198L66.3972 36.7801L66.4765 37.1516V37.8204L66.1595 38.1919L65.4465 38.0433L64.1787 37.5232L62.5148 36.5572L61.564 35.8885V36.1114L62.0394 37.1516L62.7525 39.0835L63.941 42.13L64.0203 42.873L63.7033 43.3188L63.3072 43.616L61.3263 43.6903L60.4548 43.7646L59.9794 43.9875L59.0286 44.8049L58.3947 45.3993L57.7609 45.6965H57.2855L56.8101 45.3993L56.4931 45.0278L56.2554 44.2848L55.8593 42.3529L55.1462 38.4891L54.3538 33.9566L54.2746 32.9164H54.75L54.9877 33.4365L55.7008 36.26L56.7308 40.1238L57.5232 43.3188L57.7609 43.7646L58.3155 43.4674L59.187 42.6501V42.0557L58.3155 38.0433L58.0778 37.0773L58.157 36.7058L58.5532 36.7801L58.8701 37.4489L59.9001 40.2724L60.4548 41.7584L60.6132 42.2043H62.4356L62.1979 41.2383L61.0886 38.3405L60.2171 35.8885L59.8209 34.8482L59.1078 34.2538L57.6024 33.2136L56.2554 32.1733L55.4631 31.5789L54.3538 30.6873L53.403 29.8699L52.7692 29.3498L51.5014 28.2353L49.1245 26.0062L48.5698 25.4117L47.8567 24.6687L47.1436 23.8514L46.1928 22.7368L45.1628 21.3993L44.1328 19.9133L43.182 18.3529L42.2312 16.4953L41.5181 14.6377L40.9635 12.7059V12.26L41.3596 12.3343L41.7558 12.9288L42.6273 14.7121L43.6574 16.6439L44.7666 18.4272L45.559 19.6161L46.589 21.0278L47.6983 22.4396L48.7283 23.6284L49.5999 24.5944L50.7091 25.7089L53.0861 27.938L53.72 28.4582L54.8292 29.3498L55.8593 30.1671L56.9685 30.9845L58.3947 32.0247L59.9001 33.065L61.2471 33.9566L62.8318 34.9968L64.0995 35.8142L64.6541 36.1857L64.4164 35.517L63.0695 32.4705L62.1187 30.5387L60.7717 28.0123L59.9001 26.5263L59.4247 25.6346L58.5532 24.2229L57.7609 22.9597L56.6516 21.2507L55.5423 19.6161L54.1161 17.6099L52.9276 15.9752L51.8184 14.5634L51.1053 13.7461L50.1545 12.7059L49.2037 11.7399L47.619 10.2539L46.7475 9.58512L45.3213 8.54488L44.2912 7.72754L43.5781 7.05881L42.8651 6.24148L41.9143 5.20123L41.3596 4.6068L40.3296 3.64086L39.2203 2.97213L38.428 2.67492L38.0318 2.60062H36.3679L35.4964 2.82352L34.6248 3.34365L34.0702 3.86377L33.4363 5.05262L33.0402 5.94426L32.4063 6.98451L32.2478 7.20742H33.7533L33.674 7.57894L32.8817 8.69349L33.5156 8.47058L34.3079 8.39627H35.4171L36.4472 8.61918L37.081 8.9907L37.4772 9.36222L37.8734 9.95664L38.2695 11.3684L38.8242 14.935L39.1411 16.3467L39.5373 17.4613L40.4881 19.3189L41.4389 20.6563L42.152 21.548L43.0235 22.5139L43.182 22.8111H43.3404L43.8951 23.4055L44.3705 23.9257V24.2972L43.8951 24.2229L43.1027 23.5541L42.2312 22.8854L40.4881 21.2507L39.458 19.9876L38.7449 18.9473L38.1903 17.9071L37.6357 16.3467L37.1603 14.1919L36.6849 11.3684L36.4472 10.5511L36.1302 10.0309L35.4964 9.73373L35.1795 9.65943H33.2779L31.7724 9.88234L31.1386 10.0309L31.2178 9.58512L31.9309 8.39627L32.0101 8.17336H29.9501L30.1085 7.72754L30.6632 6.98451L31.4555 5.64705L32.0101 4.6068L32.4063 3.71516L32.9609 2.89783L33.7533 2.1548L34.7833 1.56037L35.6549 1.26316L36.4472 1.11455Z" fill="#272D4E"/>
<path d="M86.1263 3.56656H92.7818L93.8911 3.64086L95.3965 4.01238L96.585 4.4582L97.6943 5.05262L98.8036 5.86996L99.5166 6.53869L100.309 7.57894L100.943 8.76779L101.418 10.1052L101.577 10.9226V13.3003L101.339 14.4148L100.943 15.5294L100.388 16.5696L99.5959 17.6099L99.4374 17.8328H99.2789L99.1205 18.13L98.3281 18.7987L97.1397 19.5418L95.9512 20.0619L94.7627 20.4334L93.4949 20.6563L92.5441 20.7306H86.2055L85.5716 20.5077L84.9378 19.9133L84.7001 19.4675L84.6208 19.0216V5.12693L84.8585 4.4582L85.4132 3.86377L85.8093 3.64086L86.1263 3.56656ZM88.8202 7.05881V17.2384H92.5441L93.6534 17.0155L94.6042 16.6439L95.555 16.0495L96.1889 15.4551L96.6643 14.7864L97.0604 13.8204L97.2189 13.0774V11.3684L96.9812 10.2539L96.3473 9.065L95.6342 8.32197L94.9211 7.80185L93.9703 7.35603L92.9403 7.05881H88.8202Z" fill="#272D4E"/>
<path d="M148.483 3.34365H149.037L149.83 3.56656L150.463 4.08668L150.78 4.6068L150.86 4.90402L150.939 13.969L151.177 15.0093L151.493 15.7523L152.048 16.4953L152.84 17.0155L153.474 17.2384L154.504 17.387H155.138L156.247 17.1641L157.198 16.7182L157.832 16.1238L158.228 15.3808L158.466 14.7121L158.545 14.2662L158.624 4.82971L158.941 4.23529L159.575 3.64086L160.447 3.34365L161.239 3.41795L161.873 3.64086L162.428 4.16098L162.745 4.75541V14.7121L162.428 16.1981L161.952 17.387L161.556 18.0557L161.001 18.7244L160.447 19.3189L159.417 19.9876L158.228 20.5077L156.802 20.8792L155.772 21.0278H153.554L152.444 20.8792L151.177 20.5077L149.909 19.9133L148.879 19.1702L148.086 18.2786L147.453 17.2384L146.898 15.678L146.74 14.3405V4.82971L147.136 4.08668L147.77 3.56656L148.483 3.34365Z" fill="#272D4E"/>
<path d="M208.937 3.26934H210.364L211.156 3.56656L211.711 4.01238L212.344 4.97832L213.85 8.17336L215.276 11.2198L216.306 13.3746L217.019 14.8607L218.683 18.4272L218.842 19.2446L218.604 19.9133L218.049 20.5077L217.574 20.8049L217.098 20.9535H216.465L215.672 20.6563L215.118 20.1362L214.484 18.9473L213.612 17.0155L205.61 16.9412L205.372 17.6842L204.5 19.5418L204.104 20.2105L203.55 20.6563L202.757 20.9535H202.123L201.331 20.582L200.776 19.9876L200.539 19.5418V18.7987L201.093 17.5356L202.678 14.1919L204.183 10.9969L207.036 4.97832L207.511 4.16098L208.066 3.64086L208.62 3.34365L208.937 3.26934ZM209.571 8.17336L209.254 8.76779L208.304 10.9226L207.432 12.8545L207.194 13.4489L209.175 13.5232H211.948L212.027 13.3003L211.077 11.2198L210.126 9.065L209.73 8.24767L209.571 8.17336Z" fill="#272D4E"/>
<path d="M135.885 3.26934L137.865 3.34365L139.45 3.64086L140.876 4.16098L142.065 4.75541L142.461 5.05262L142.936 5.72135L143.016 6.01857V6.6873L142.778 7.20742L142.382 7.72754L141.669 8.09906L141.352 8.17336H140.718L139.767 7.80185L138.499 7.20742L137.707 6.98451L136.835 6.7616H135.647L134.855 6.98451L134.379 7.28172L134.062 7.65324L133.983 7.80185V8.61918L134.221 8.9907V9.1393L135.488 9.73373L137.152 10.1796L139.054 10.6997L140.322 11.1455L141.669 11.8142L142.619 12.6316L143.174 13.3746L143.57 14.4891L143.729 15.3808L143.649 16.421L143.253 17.8328L142.54 18.9473L141.827 19.6161L140.955 20.1362L140.084 20.5077L139.054 20.8049L138.341 20.9535L137.39 21.0278H135.964L134.696 20.8792L133.191 20.5077L131.606 19.9133L130.338 19.2446L129.546 18.5758L129.15 17.8328V17.0155L129.546 16.3467L130.18 15.8266L130.655 15.678H131.527L132.161 15.9009L133.428 16.6439L134.379 17.0898L135.568 17.387L136.994 17.5356L137.786 17.4613L138.816 17.0898L139.212 16.7182L139.45 16.1981V15.678L139.133 15.0836L138.499 14.7121L137.548 14.3405L134.775 13.5975L133.111 13.0774L131.764 12.4086L131.051 11.8885L130.418 11.1455L129.942 10.1796L129.784 9.51082V7.65324L130.101 6.53869L130.734 5.49844L131.448 4.75541L132.557 4.01238L133.428 3.64086L134.696 3.34365L135.885 3.26934Z" fill="#272D4E"/>
<path d="M119.404 3.26934H120.276L121.94 3.41795L123.445 3.78947L124.792 4.30959L125.584 4.75541L126.139 5.20123L126.535 5.94426V6.7616L126.218 7.35603L125.822 7.80185L125.188 8.09906L124.95 8.17336H124.317L123.445 7.87615L122.177 7.28172L121.306 6.98451L120.355 6.7616H119.166L118.374 6.98451L117.74 7.43033L117.503 7.87615V8.54488L117.74 8.9907L118.295 9.43652L119.563 9.88234L120.672 10.1796L122.653 10.6997L123.841 11.1455L125.188 11.8142L126.139 12.6316L126.694 13.3746L127.01 14.0433L127.248 15.3065L127.169 16.4953L126.931 17.4613L126.297 18.6501L125.584 19.3932L124.792 19.9876L123.683 20.5077L121.86 20.9535L120.91 21.0278H119.483L118.295 20.8792L116.948 20.582L114.967 19.839L113.779 19.1702L113.065 18.5758L112.749 18.0557L112.669 17.2384L112.907 16.5696L113.462 15.9752L114.175 15.678H115.046L115.839 15.9752L116.948 16.6439L117.899 17.0898L119.087 17.387L120.276 17.5356H120.989L122.019 17.2384L122.653 16.8668L122.97 16.3467L123.049 15.9009L122.811 15.2322L122.257 14.7864L121.306 14.4148L119.8 13.969L117.819 13.4489L116.314 12.9288L115.046 12.26L114.175 11.4427L113.699 10.6997L113.303 9.51082V7.65324L113.699 6.46439L114.175 5.64705L114.729 4.97832L115.839 4.16098L117.027 3.64086L118.216 3.34365L119.404 3.26934Z" fill="#272D4E"/>
<path d="M21.4721 51.4922H22.8983L24.0076 51.6408L25.0376 51.938L26.1469 52.5324L27.1769 53.4241L27.89 54.4643L28.3654 55.5789L28.6031 56.6934L28.6823 57.7337L28.4446 58.3281L28.0485 58.6253L27.8108 58.6996L19.4121 58.7739L19.729 59.6655L20.2044 60.3343L20.9175 60.8544L21.9475 61.1516H22.7399L23.6907 60.9287L24.3245 60.5572L25.1961 59.7398L25.3546 59.6655H27.6523L28.0485 59.8141L28.2069 60.0371V60.5572L27.89 61.3002L27.2561 62.1175L26.4638 62.7863L25.5923 63.2321L24.6415 63.6036L23.6114 63.8265L22.8983 63.9008H21.7098L20.3629 63.6779L19.0952 63.1578L18.1444 62.4891L17.5105 61.8946L16.7182 60.7801L16.2428 59.7398L16.0051 58.8482L15.9258 58.3281V56.9163L16.2428 55.5789L16.7974 54.39L17.352 53.647L18.0651 52.9039L18.9367 52.3095L20.1252 51.7894L21.4721 51.4922ZM21.7891 54.0185L20.9175 54.2414L20.2044 54.7615L19.729 55.3559L19.4121 56.0247V56.2476H25.1961L25.1169 55.7275L24.6415 54.9101L24.0868 54.4643L23.2945 54.0928L22.9776 54.0185H21.7891Z" fill="#272D4E"/>
<path d="M59.504 51.4922H60.8509L62.1979 51.7151L63.2279 52.0866L64.1787 52.6067L64.9711 53.2755L65.6842 54.2414L66.0803 54.9844L66.3972 55.8761L66.5557 56.842V57.9566L66.318 58.4024L66.0803 58.6253L65.6842 58.6996H57.2855L57.7609 59.8885L58.3155 60.5572L59.4247 61.0773L59.9001 61.1516H60.6925L61.6433 60.9287L62.3564 60.4829L63.0695 59.7398L63.2279 59.6655H65.6842L66.0011 59.8141L66.0803 59.9628V60.6315L65.7634 61.3002L65.288 61.9689L64.5749 62.6377L63.5449 63.2321L62.5148 63.6036L61.4848 63.8265L60.8509 63.9008H59.504L58.3155 63.6779L57.3647 63.3064L56.4139 62.7863L55.3046 61.746L54.5915 60.7058L54.0369 59.4426L53.8784 58.551V56.7677L54.1161 55.6532L54.6708 54.4643L55.3046 53.5727L56.2554 52.681L57.2855 52.0866L57.9986 51.7894L58.9493 51.5665L59.504 51.4922ZM59.6624 54.0185L58.8701 54.2414L58.3947 54.5386L57.9986 54.8358L57.5232 55.5789L57.3647 55.9504V56.2476L62.911 56.3219L63.1487 56.2476L62.911 55.5046L62.5148 54.9101L61.881 54.39L61.1679 54.0928L60.8509 54.0185H59.6624Z" fill="#272D4E"/>
<path d="M168.529 3.34365H169.083L169.955 3.64086L170.509 4.08668L170.906 4.82971L170.985 5.34984V17.2384H178.67L179.384 17.4613L180.017 18.13L180.255 18.7987L180.176 19.4675L179.859 20.0619L179.225 20.582L178.67 20.7306H168.291L167.736 20.5077L167.261 20.1362L166.865 19.6161L166.785 19.3189V4.75541L167.102 4.16098L167.815 3.56656L168.529 3.34365Z" fill="#272D4E"/>
<path d="M74.5583 0H75.5883L75.6675 0.148607V80.5448L75.5883 80.6934L74.8752 80.7677L74.5583 80.842L74.479 80.6191V0.0743033L74.5583 0Z" fill="#272D4E"/>
<path d="M34.0702 51.4922H35.4171L36.6056 51.6408L37.7941 52.0123L38.6657 52.4581L39.458 53.1269L39.9334 53.7213L40.1711 54.2414L40.2504 54.7615L40.0127 55.2073L39.775 55.3559H37.6357L37.2395 55.133L36.6849 54.39L36.051 54.0928L34.6248 53.9442L33.7533 54.0928L33.2779 54.39L33.0402 54.6872V55.2073L33.3571 55.5789L34.1494 55.8761L35.2587 56.1733L36.9226 56.5448L38.1903 56.9163L39.0619 57.3621L39.8542 58.0309L40.3296 58.7739L40.5673 59.5912V60.5572L40.2504 61.5231L39.775 62.1919L39.3788 62.5634L38.6657 63.0835L37.398 63.6036L36.2887 63.8265L35.4964 63.9008H34.1494L32.7232 63.6779L31.5347 63.2321L30.6632 62.712L29.7124 61.8203L29.3162 61.0773L29.237 60.8544V60.1114L29.4747 59.7398L29.7124 59.6655H31.8517L32.2478 59.8885L32.9609 60.7058L33.4363 61.003L34.1494 61.2259L34.6248 61.3002H35.4171L36.1302 61.1516L36.7641 60.7801L37.0018 60.5572L37.081 60.0371L36.8433 59.6655L36.4472 59.4426L34.7833 58.9968L32.4063 58.4024L31.297 57.9566L30.6632 57.5107L30.267 57.1392L29.9501 56.7677L29.6331 56.1733L29.5539 55.9504V54.4643L29.8708 53.7213L30.3462 53.0525L30.9009 52.5324L31.6932 52.0866L32.4063 51.7894L33.3571 51.5665L34.0702 51.4922Z" fill="#272D4E"/>
<path d="M10.2211 17.9071H11.2511L11.1719 18.3529L10.7757 18.9473L10.6172 19.0216L8.71563 19.2446L7.05174 19.6161L6.10094 19.9876L5.62554 20.3591L5.54631 20.8049L5.78401 21.1764L6.41787 21.6966L7.6856 22.291L8.55716 22.5882L9.66643 22.7368L10.4588 22.5882L11.6473 22.1424L11.9642 22.0681H13.5488L15.3712 22.5139L17.2728 23.2569L18.7782 23.9257L18.9367 24.1486L18.3028 24.8916L17.5105 24.6687L15.6089 24L14.1827 23.6284L12.6773 23.4798L11.568 23.7027L10.3795 24.0743L9.66643 24.2229L9.1118 24.1486L7.84407 23.8514L6.41787 23.2569L5.70478 22.8111L5.30861 22.5882V23.4055L5.78401 24.2972L6.49711 25.0402L7.4479 25.7089L8.47793 26.3034L9.82489 26.8235L10.1418 26.9721L10.3003 27.3436L10.3795 27.938L10.3003 28.0123L9.42873 27.938L8.08177 27.5665L6.81404 26.9721L6.18017 26.6006V27.3436L6.49711 28.0866L7.36867 29.1269L8.55716 30.3157L9.03256 30.613L9.42873 30.6873L10.6172 30.4643H12.3603L13.6281 30.9102L14.8958 31.5789L16.2428 32.4705L17.0351 33.1393L17.2728 33.2879V33.4365L17.5897 33.5851L17.7482 33.7337V34.0309L17.2728 34.3281L16.9559 34.6253L16.5597 34.4767L16.2428 34.1052L14.8958 33.1393L13.6281 32.3962L12.598 31.9504L11.885 31.7275H10.7757L9.90413 31.9504L4.51628 34.0309L2.93162 34.6996L2.29776 35.0712L2.21852 35.2198H2.06006L1.90159 35.5913L1.74313 36.1114L1.66389 38.3405L1.50543 38.6377L1.10926 38.8606L0.316932 38.9349L0.158466 38.7863V38.4148H0.079233L0 37.3746L0.158466 37.0773L0.237699 35.7399L0.554631 34.9968L1.10926 34.3281L1.82236 33.808L3.09009 33.2136L5.46708 32.2476L7.4479 31.5046H7.60637V31.356L7.28944 31.2074L6.41787 30.3157L5.62554 29.4241L5.07091 28.6068L4.75398 28.0123L4.59551 27.0464L4.75398 26.0805V25.4117L4.19935 24.5944L3.64472 23.7027L3.56549 23.4798V22.7368L3.80318 21.9938V21.4737L3.56549 20.8792V20.3591L4.04088 19.6904L4.67475 19.2446L5.78401 18.7244L7.36867 18.2786L9.19103 17.9814L10.2211 17.9071ZM0.158466 37.2259V37.5975H0.237699V37.2259H0.158466Z" fill="#272D4E"/>
<path d="M2.93162 1.04025L3.88242 1.18885L4.67475 1.56037L4.99168 1.78328H5.94247L6.7348 1.93189L7.6856 2.37771L8.3987 2.97213L8.87409 3.71516L9.19103 4.30959L9.82489 4.5325L10.3795 4.97832L10.6172 5.34984H10.6965L10.8549 4.5325L11.4096 3.49225L11.8849 2.97213L12.7565 2.45201L13.7073 2.1548L14.2619 1.63467L15.2127 1.18885L15.4504 1.11455H16.5597L17.4313 1.41176L18.0651 1.85758L18.6198 2.52631L18.9367 3.26934V4.23529L18.4613 5.12693L18.3028 5.34984V6.46439L17.9859 7.20742L17.5105 7.80185L16.8766 8.32197L16.322 8.61918L16.1635 9.13931L15.5297 9.80803L14.6581 10.1796L14.0242 10.3282H13.3111L13.1527 10.2539L13.2319 9.88234L14.3412 9.28791L14.7373 8.9164H14.8958L15.3712 7.80185L16.0051 7.43033L16.4805 7.05881H16.6389L16.9559 6.31578V5.57275L16.8766 5.05262L17.352 4.5325L17.4313 4.30959V3.41795L17.0351 2.82352L16.4012 2.52631H15.6881L15.1335 2.74922L14.4996 3.34365L13.6281 3.49225L12.9942 3.78947L12.598 4.16098L12.1226 4.82971L11.9642 5.49844L11.7265 6.01857L11.2511 6.7616L10.8549 7.87615L10.538 7.80185L10.3003 7.28172L9.98336 6.39008L9.66642 5.94426L9.58719 5.72135L9.19103 5.57275L8.24023 5.27553V5.12693H8.08177L7.76483 4.30959L7.36867 3.78947L6.49711 3.26934L5.38784 3.04643H4.83321L4.51628 3.12074L3.88242 2.67492L3.16932 2.52631L2.37699 2.67492L1.82236 3.26934L1.66389 4.01238L1.90159 4.68111L2.53546 5.27553L2.93162 6.61299L3.48625 7.35603L4.19935 7.80185L4.83321 8.02476L5.62554 8.17336L6.18017 8.9907L7.05174 9.51082L8.08177 9.80803L8.31946 10.1052L8.161 10.3282L7.2102 10.5511L6.57634 10.8483L6.02171 11.2198L4.83321 11.2941L3.80318 11.5913L3.09009 12.0371L2.53546 13.0774L2.06006 13.3746L1.66389 14.1176L1.74313 14.8607L2.06006 15.3808L2.53546 15.678L2.85239 15.7523H3.40702L3.96165 15.5294L4.27858 15.3065L4.75398 15.4551L5.15014 15.6037H6.10094L6.89327 15.2322L7.52713 14.6377L8.55716 14.5634L9.58719 14.1919L10.3003 13.7461L10.6965 13.4489H10.8549L10.9342 13.8947L10.6172 14.4891L9.98336 15.1579L9.34949 15.5294L8.08177 15.8266L7.2102 16.4953L6.41787 16.7925L6.02171 16.8668H5.22938L4.51628 16.7925L3.88242 17.0898L3.64472 17.1641H2.53546L1.74313 16.9412L1.03003 16.421L0.554631 15.9009L0.237699 15.3065V13.6718L0.554631 13.0774L0.871563 12.7059H1.03003V12.5573L1.42619 12.3343L1.90159 11.4427L2.53546 10.8483L3.32779 10.4768L3.96165 10.2539L5.54631 10.1052L4.99168 9.51082V9.28791H4.43705L3.48625 8.9907L2.61469 8.39627L1.98082 7.65324L1.50543 6.7616L1.34696 6.01857L0.554631 5.20123L0.237699 4.68111V3.04643L0.633864 2.3034L1.26773 1.63467L2.21852 1.18885L2.93162 1.04025Z" fill="#272D4E"/>
<path d="M48.0152 28.2353L48.4114 28.3096L48.8868 28.6068L49.2829 28.8297L49.2037 29.2012L48.3321 30.6873L47.7775 31.5046L46.8267 32.6935L45.8759 33.7337L44.7666 34.7739L43.6574 35.5913L42.7858 36.1857L41.4389 36.9287L40.0919 37.5232L38.8242 37.8947L37.0018 38.1176L34.3079 38.1919L28.6031 38.2662L27.0977 38.4891L25.2753 38.9349L24.1661 39.0835H23.0568L21.8683 38.8606L20.8383 38.4891L19.729 37.8947L18.9367 37.3003L18.3821 37.5975L17.352 38.4148L16.322 39.1578L15.0543 40.0495L13.7865 41.0154L12.598 41.6842L11.6472 42.0557L10.6965 42.2786L10.1418 42.3529H8.87409L8.79486 42.2786V41.7585L9.03256 41.3126L9.19103 41.164L10.7757 41.0154L11.9642 40.6439L12.8357 40.1238L13.2319 39.678L13.4696 38.7863V37.5232L13.3111 36.8544L12.8357 36.1857L11.9642 35.6656L10.9342 35.2941L10.538 35.1455L10.6172 34.9226L11.568 34.4024L12.2811 34.551L13.4696 35.1455L14.1827 35.8142L14.5789 36.5572L14.7373 37.1516V38.6377L16.0843 37.6718L17.5897 36.6315L18.8575 35.7399L19.9667 34.9969L20.5213 34.551L20.8383 34.6253L21.1552 35.0712L21.3137 35.4427L20.4421 36.1114L20.1252 36.26V36.4086L21.2344 37.0773L22.1852 37.4489L22.9776 37.5975H24.3245L25.7507 37.3003L27.4146 36.9287L28.3654 36.7801L29.3954 36.7058L37.3187 36.6315L38.3488 36.4829L39.5373 36.1857L41.0427 35.517L42.152 34.8482L43.4197 33.9566L44.6082 32.9164L45.1628 32.3219H45.3213L45.4797 32.0247L46.5098 30.7616L47.3021 29.5727L47.7775 28.7554L48.0152 28.2353Z" fill="#272D4E"/>
<path d="M106.965 3.34365H107.598L108.47 3.64086L109.025 4.16098L109.342 4.68111L109.421 5.20123V18.6501L109.342 19.6161L108.866 20.2848L108.391 20.6563L107.598 20.9535H106.965L106.251 20.6563L105.618 20.1362L105.301 19.5418L105.221 19.0959V4.97832L105.459 4.38389L106.014 3.78947L106.648 3.41795L106.965 3.34365Z" fill="#272D4E"/>
<path d="M42.7858 47.4055H44.7666L45.3213 47.7027L45.4797 47.9256L45.559 48.4457V51.938H47.936L48.4114 52.3095L48.4906 53.4241L48.3321 53.9442L48.0152 54.1671L47.6983 54.2414H45.4797L45.559 55.0587L45.6382 60.1857L45.9551 60.6315L46.3513 60.9287L46.7475 61.0773L47.619 61.1516L48.0944 61.3745L48.3321 61.6717L48.4114 62.0432V62.9349L48.1737 63.455L47.8567 63.6779L47.2229 63.7522H46.4305L45.1628 63.6036L44.2912 63.3064L43.4197 62.7863L42.7858 62.1175L42.3104 61.2259L42.152 60.6315L42.0727 59.9628V54.1671L41.9143 54.2414H41.3596L40.805 54.0928L40.6465 53.7956V52.4581L40.8842 52.0123L41.1219 51.938H42.0727V48.2971L42.3104 47.777L42.6273 47.4798L42.7858 47.4055Z" fill="#272D4E"/>
<path d="M13.5488 71.3312H15.4504L16.5597 71.5541L17.2728 71.9256L17.9067 72.5943L18.1444 73.263L18.2236 76.681L18.3028 78.6129L18.5405 79.133H18.699V78.39L18.8575 78.0928H19.0159L19.1744 77.7955L19.9667 77.1268L20.1252 76.9039H20.2836L20.4421 76.6067L24.6415 72.6686V72.5943H19.0952L19.0159 72.52V71.4798H26.7808L27.0185 71.6284L26.9392 72.3714L26.2261 73.1144L25.9884 73.4117H25.83V73.5603H25.6715L25.513 73.8575L23.6114 75.6408L23.0568 76.2352L20.8383 78.3157L21.1552 78.2414H27.2562V79.3559L27.1769 79.4302H16.8766L16.6389 78.9101L16.5597 78.5386L15.292 79.2073L14.2619 79.5045L13.7865 79.5788H12.2019L11.2511 79.3559L10.538 78.9101L9.98336 78.2414L9.82489 77.8699V76.7553L10.2211 76.0123L10.8549 75.4921L11.8057 75.0463L15.6089 74.5262L16.4012 74.3033V73.7089L16.0051 72.9658L15.4504 72.6686L14.3412 72.52L13.2319 72.5943L12.4396 72.8915L11.9642 73.4117L11.7265 73.9318L11.4888 74.0061L10.1418 73.8575L10.0626 73.5603L10.538 72.6686L11.0134 72.1485L11.8057 71.7027L12.8357 71.4055L13.5488 71.3312ZM16.322 75.4921L14.4204 75.8637L12.5188 76.1609L12.0434 76.3838L11.6473 76.8296L11.4888 77.2754L11.7265 77.8699L12.2811 78.3157L12.7565 78.4643H14.1035L15.1335 78.1671L15.8466 77.7212L16.1635 77.3497L16.4012 76.6067L16.4805 76.1609V75.4921H16.322Z" fill="#272D4E"/>
<path d="M33.1194 68.4333H37.2395L38.9826 68.5076L40.2504 68.7305L41.2012 69.1764L41.6766 69.5479L42.2312 70.3652L42.3897 70.7367V71.8513L41.9143 72.7429L41.3596 73.263L40.8842 73.486H40.7258V73.6346L41.4389 73.8575L42.2312 74.3776L42.7858 75.0463L43.1028 75.8637V76.6067L42.8651 77.3497L42.4689 78.0185L42.0727 78.4643L41.2012 78.9844L40.0127 79.2816L39.0619 79.4302H33.0402V68.5076L33.1194 68.4333ZM34.7833 69.8451V73.1144H38.2695L39.5373 72.8915L40.0127 72.6686L40.5673 72.0742L40.6465 71.8513V71.1083L40.4088 70.5881L40.0919 70.2166L39.6957 69.9937L38.6657 69.8451H34.7833ZM34.7833 74.3776V78.0928H38.428L39.5373 78.0185L40.2504 77.7955L40.8842 77.2754L41.1219 76.9039L41.2012 76.6067V75.938L40.8842 75.1949L40.3296 74.7491L39.458 74.4519L38.428 74.3776H34.7833Z" fill="#272D4E"/>
<path d="M49.9168 47.4055H51.9768L52.4522 47.6284L52.6899 47.9256L52.7692 48.1485V62.8606L52.5315 63.3807L52.1353 63.6779H49.8376L49.2829 63.0835L49.2037 61.4488L49.2829 47.9999L49.5999 47.5541L49.9168 47.4055Z" fill="#272D4E"/>
<path d="M85.8886 28.7554H89.0579L90.7218 28.904L91.831 29.2012L92.7818 29.647L93.6534 30.2414L94.4457 30.9845L95.0004 31.8018L95.3965 32.6191L95.6342 33.5108V35.5913L95.3965 36.4829L94.7627 37.6718L94.2873 38.2662L93.9703 38.6377L93.178 39.2321L92.3857 39.678L91.0387 40.1238L90.1671 40.2724L89.1371 40.3467H85.4924L85.017 40.1238L84.8585 39.8266V29.2012L85.2547 28.8297L85.8886 28.7554ZM86.364 30.1671V39.0092H89.8502L90.9595 38.7863L92.2272 38.1919L92.8611 37.6718L93.4949 37.003L93.8911 36.1857L94.1288 35.1455V34.0309L93.8911 32.9907L93.2572 31.8018L92.4649 31.0588L91.3556 30.4644L90.3256 30.1671H86.364Z" fill="#272D4E"/>
<path d="M57.2062 71.3312H58.5532L59.3455 71.5541L59.9794 71.9256L60.4548 72.52L60.7717 72.3714L61.4056 71.8513L62.1979 71.4798L62.8318 71.3312H64.0995L65.0503 71.5541L65.6842 71.9999L66.1596 72.52L66.3972 73.0401L66.4765 73.5603V79.3559L66.3972 79.4302H64.7334L64.6541 73.486L64.4164 73.0401L64.0203 72.7429L63.5449 72.5943H62.5941L61.881 72.8172L61.3263 73.263L60.9302 73.9318L60.8509 74.6005L60.7717 79.4302H59.1078L59.0286 73.6346L58.7116 73.0401L58.2363 72.6686L57.9986 72.5943H56.9685L56.097 72.8915L55.5423 73.486L55.3046 74.0804L55.1462 75.1949V79.2816L55.0669 79.4302H53.403V71.5541L53.4823 71.4798H54.9085L54.9877 71.5541V72.4457L55.8593 71.777L56.7308 71.4055L57.2062 71.3312Z" fill="#272D4E"/>
<path d="M43.8158 26.1548L44.2912 26.2291L45.0836 26.6749L44.9251 26.9721L43.9743 27.4922L43.0235 28.1609L42.2312 28.8297L41.4389 29.5727L40.6465 30.5387L40.0127 31.4303L39.458 32.2476H40.5673L41.5973 31.9504L42.7066 31.356L43.4197 30.8359L43.9743 30.5387L44.0535 30.613V31.5789L43.8158 31.9504L42.9443 32.5448L41.7558 33.1393L40.805 33.4365L40.4088 33.5108H38.2695L37.0018 34.1052L35.7341 34.551L33.5156 35.0712L31.4555 35.3684L29.7124 35.517L27.9692 35.5913H26.4638L26.3846 35.2198L26.7015 34.6253L26.9392 34.4767L28.6031 34.4024L31.7724 34.1052L32.2478 34.0309L31.614 32.8421L30.9801 32.1733L30.1878 31.8018L29.3162 31.8761L27.6523 32.3962L25.2753 33.3622L23.6907 34.1052L23.3737 34.0309L22.9776 33.5108L22.8191 33.4365L22.9776 33.1393L25.5923 31.8761L27.5731 31.0588L29.1577 30.5387L29.5539 30.4643H30.6632L31.4555 30.7616L32.2478 31.356L32.9609 32.1733L33.5948 33.2879L33.674 33.7337L35.4964 33.2136L36.8433 32.6934L37.5564 32.1733H37.7149V32.0247L38.1111 31.6532L38.9826 30.5387L39.6957 29.5727L40.6465 28.6068L41.9935 27.3436L43.1028 26.6006L43.8158 26.1548Z" fill="#272D4E"/>
<path d="M130.497 28.2353H130.972L131.448 28.5325V33.2136L131.844 32.8421L132.636 32.1733L133.587 31.7275L134.221 31.5789H135.33L136.281 31.8018L137.39 32.3219L137.945 32.7678L138.579 33.5851L138.975 34.4024L139.292 35.8885L139.212 36.6315L138.975 37.7461L138.499 38.6377L137.945 39.3064L137.152 39.9009L136.36 40.2724L135.409 40.4953H134.141L132.953 40.1238L132.081 39.5294L131.764 39.2321V39.0835H131.527L131.448 39.9009L131.21 40.2724L131.051 40.421H130.497L130.101 40.1238L130.021 39.9752L129.942 39.2321V28.9783L130.101 28.4582L130.497 28.2353ZM134.062 32.8421L133.191 33.1393L132.478 33.5851L131.844 34.4024L131.527 34.9969L131.448 35.3684V36.7801L131.764 37.5975L132.398 38.4148L133.27 39.0092L133.983 39.2321L134.855 39.3064L135.726 39.0835L136.598 38.6377L137.232 37.969L137.628 37.0773L137.707 36.7058V35.3684L137.39 34.4767L136.915 33.808L136.202 33.2136L135.251 32.8421H134.062Z" fill="#272D4E"/>
<path d="M22.8191 5.27553H23.6907L24.9584 5.57275L26.1469 6.01857L26.6223 6.09287L28.8408 6.16717L28.6823 6.53869L28.1277 7.28172L27.6523 7.87615V8.09906L29.1577 9.065V9.36222L27.9692 9.73373L26.86 10.2539L26.2261 10.6997L25.9092 10.8483L25.7507 11.1455L25.1169 11.6656L24.7999 11.517L25.1169 10.6997L25.6715 9.95664L26.3846 9.28791L27.0185 8.9907H27.1769L26.7808 8.61918L26.2261 8.32197L26.3054 7.95045H26.4638L26.6223 7.65324L26.86 7.28172H26.1469L24.8792 6.91021L24.0868 6.6873H22.8191L22.0268 6.98451L21.4721 7.43033L20.9967 8.32197L20.2836 10.6254L19.6498 11.8142L19.0952 12.6316L18.2236 13.6718L17.5105 14.4148L16.6389 15.4551L15.9258 16.3467L15.0543 17.7585L14.1035 19.4675L13.4696 20.6563L13.3111 20.8792H11.8057L11.8849 20.5077L12.8357 18.5758L13.4696 17.387L14.1827 16.1981L14.975 15.1579L15.8466 14.1176L16.7182 13.226L17.1143 12.7059H17.2728L17.4313 12.4086L18.0651 11.5913L18.6198 10.5511L19.0159 9.36222L19.5706 7.72754L19.9667 6.98451L20.6006 6.24148L21.2344 5.79566L22.0268 5.42414L22.8191 5.27553Z" fill="#272D4E"/>
<path d="M47.4606 71.3312H48.7283L49.6791 71.4798L50.7883 71.9999L51.5807 72.6686L52.0561 73.4117L52.4522 74.3776L52.5315 74.8234V75.7894L52.0561 75.8637H45.4005L45.6382 76.8296L46.1136 77.5726L46.6682 78.0185L47.4606 78.3157H48.8868L49.5999 78.0928L49.996 77.7955H50.1545L50.313 77.4983L50.7091 76.8296H51.4222L52.2938 76.9039L52.373 76.9782L52.2938 77.4983L51.8184 78.2414L51.2637 78.7615L50.313 79.2816L49.4414 79.5045L48.8868 79.5788H47.3813L46.3513 79.3559L45.242 78.8358L44.7666 78.4643L44.0535 77.4983L43.8158 76.9782L43.6574 76.0866V74.8977L43.8951 73.7832L44.3705 72.9658L45.1628 72.1485L45.9551 71.7027L46.9059 71.4055L47.4606 71.3312ZM47.6983 72.4457L46.9059 72.6686L46.1928 73.1144L45.6382 73.8575L45.4005 74.5262V74.6748H50.7883L50.5506 73.8575L50.2337 73.3373L49.6791 72.8172L48.966 72.52L48.5698 72.4457H47.6983Z" fill="#272D4E"/>
<path d="M0.554631 68.4333H9.11179L9.34949 68.5819V69.7708L9.27026 69.8451L2.21852 69.9194L2.13929 73.1887H8.31946L8.3987 73.263V74.4519L8.24023 74.5262H3.40702L2.13929 74.4519L2.21852 79.3559L2.13929 79.4302H0.396165L0.316932 79.3559V68.5819L0.554631 68.4333Z" fill="#272D4E"/>
<path d="M30.5047 11.9628H30.6632L30.5839 12.4086L29.9501 13.8204V14.0433L31.6932 14.7121V15.0093L30.8216 15.6037L30.1878 16.1981L29.4747 17.0898L28.8408 18.2786L28.5239 19.0959L28.2069 20.4334L28.1277 21.9195L27.9692 22.4396H27.6523L27.4146 21.7709L27.1769 20.2105L27.2562 19.2446L27.4938 18.2043L27.89 17.2384L28.5239 16.1981L29.237 15.3808L29.6331 15.0093L29.3954 14.8607L28.5239 14.5634L28.6823 14.1176L29.0785 13.3746L28.4446 13.5975H27.2562L26.7015 13.5232H25.5923L24.7999 13.7461L24.0868 14.2662L23.6114 15.0093L23.453 15.3808L23.2945 17.0898L22.9776 18.2786L22.2645 19.4675L21.1552 20.9535L20.2044 22.2167L19.6498 22.9597L19.3329 22.8854L18.3028 22.3653L18.6198 21.8452L19.3329 20.8792L20.1252 19.839L21.076 18.6501L21.5514 17.7585L21.7098 17.0155L21.9475 15.3065L22.1852 14.4891L22.6606 13.6718L23.3737 12.9288L24.2453 12.4086L25.0376 12.1857L25.4338 12.1114H26.3054L27.6523 12.3343H28.7616L30.0293 12.1114L30.5047 11.9628Z" fill="#272D4E"/>
<path d="M169.321 31.6532H171.143L172.173 31.9504L172.807 32.2476L173.52 32.8421L173.996 33.7337L174.154 34.2538V40.0495L173.837 40.3467L173.283 40.421L172.807 40.0495V39.2321L171.777 39.9752L170.906 40.3467L170.192 40.4953H168.846L167.815 40.1981L167.102 39.7523L166.469 39.0835L166.152 38.4148V37.1516L166.706 36.1114L167.34 35.5913L168.132 35.2198L169.321 34.9968H170.985L172.094 35.1455L172.728 35.2941L172.569 34.2538L172.253 33.6594L171.698 33.2136L170.906 32.9907H169.321L168.053 33.2879L167.34 33.4365L166.865 32.9164L166.944 32.4705L167.578 32.099L168.529 31.8018L169.321 31.6532ZM169.717 36.0371L168.846 36.1857L168.132 36.6315L167.815 37.003L167.657 37.3003V38.1919L168.132 38.8606L168.687 39.2321L169.321 39.3807H170.351L171.302 39.1578L172.173 38.5634L172.649 37.8947L172.807 37.5232L172.886 36.7058L172.649 36.3343L172.253 36.1857L170.668 36.0371H169.717Z" fill="#272D4E"/>
<path d="M180.81 31.5789H181.523L182.474 31.7275L183.424 32.099L184.217 32.6191L184.851 33.2136L185.484 34.1795L185.881 35.4427V36.6315L185.564 37.7461L185.088 38.5634L184.534 39.2321L183.583 39.9009L182.553 40.3467L181.84 40.4953H180.176L179.146 40.1981L178.195 39.678L177.561 39.1578L177.007 38.4148L176.531 37.4489L176.373 36.9287L176.293 35.9628L176.452 34.9225L176.848 34.0309L177.323 33.2879L177.957 32.6191L179.067 31.9504L180.097 31.6532L180.81 31.5789ZM180.334 32.8421L179.542 33.1393L178.908 33.5851L178.433 34.1052L178.116 34.6253L177.878 35.4427L177.799 36.1857L178.037 37.2259L178.433 37.969L179.146 38.712L180.097 39.1578L180.81 39.3064H181.444L182.474 39.0092L183.266 38.5634L183.821 37.969L184.137 37.3746L184.296 36.8544V35.2198L183.9 34.3281L183.424 33.7337L182.711 33.2136L182.077 32.9164L181.76 32.8421H180.334Z" fill="#272D4E"/>
<path d="M141.748 31.7275H142.461L142.857 32.0247L142.936 37.1516L143.174 38.0433L143.649 38.6377L144.204 39.0092L145.076 39.2321L145.868 39.1578L146.66 38.8606L147.294 38.3405L147.69 37.8204L147.849 37.3003L147.928 36.0371L148.007 32.0247L148.245 31.7275H148.958L149.275 31.8761L149.433 32.3962V38.8606L149.354 40.1238L149.037 40.3467L148.562 40.421L148.086 40.1981L148.007 39.9752L147.928 39.1578L147.69 39.2321L147.532 39.5294L146.977 39.9752L146.185 40.3467L145.551 40.4953H144.204L143.412 40.2724L142.778 39.9752L142.144 39.3807L141.589 38.3405L141.431 37.7461V32.099L141.748 31.7275Z" fill="#272D4E"/>
<path d="M160.526 31.5789H161.477L162.428 31.7275L163.695 32.3219L164.329 32.8421L164.567 33.1393V33.5851L164.012 34.0309L163.616 33.9566L162.586 33.2879L161.715 32.9164L160.843 32.8421L160.051 32.9907L159.258 33.3622L158.704 33.808L158.07 34.8482L157.911 35.517V36.6315L158.228 37.5975L158.624 38.1176V38.2662H158.783L159.179 38.6377L159.813 39.0092L160.764 39.2321H161.556L162.745 38.7863L163.616 38.1919L164.092 38.0433L164.646 38.4891L164.567 39.0092L163.854 39.678L163.062 40.1238L162.19 40.421L161.794 40.4953H161.239L161.16 40.8668L160.368 42.4272L159.971 42.7987L159.338 42.6501L159.021 42.5015L158.783 42.2043L159.496 41.0897L159.892 40.6439V40.421L158.941 40.1238L158.07 39.6037L157.277 38.8606L156.723 37.969L156.406 37.1516L156.327 36.7801V35.2941L156.644 34.3281L157.119 33.5108L157.832 32.6934L158.862 32.0247L159.654 31.7275L160.526 31.5789Z" fill="#272D4E"/>
<path d="M56.8893 2.45201H58.3155L58.157 2.89783L57.4439 4.4582L57.0478 5.64705L56.8893 6.6873V7.20742L57.127 7.72754L57.2062 7.87615L57.9193 8.02476L59.504 7.72754L62.6733 6.7616L64.8918 6.01857H65.0503L65.1295 7.20742L64.8918 7.43033L62.1979 8.32197L59.7417 9.065L58.5532 9.28791H57.0478L56.3347 8.9907L55.78 8.39627L55.4631 7.57894L55.3839 6.98451L54.9085 7.65324L54.1161 8.84209L53.4823 9.73373L52.7692 10.6254L52.4522 10.6997L51.7391 9.95664L51.6599 9.65943L52.2145 9.13931L52.7692 8.39627L54.0369 6.6873L55.1462 5.05262L56.097 3.64086L56.8101 2.52631L56.8893 2.45201Z" fill="#272D4E"/>
<path d="M105.301 31.5789L106.568 31.6532L107.915 32.0247L108.628 32.3962L109.025 32.7678L108.945 33.065L108.47 33.5851L107.995 33.5108L106.727 32.9907L105.935 32.8421H105.301L104.588 33.065L104.112 33.4365L103.954 33.808L104.033 34.3281L104.667 34.8482L105.776 35.2198L107.361 35.7399L108.153 36.1114L108.549 36.4086L109.025 37.0773L109.183 37.7461L109.104 38.5634L108.628 39.455L107.995 39.9752L107.361 40.2724L106.41 40.4953H105.142L103.954 40.1981L103.003 39.8266L102.29 39.3807V39.2321H102.131L102.052 38.8606L102.369 38.3405L102.607 38.2662L103.399 38.5634L104.429 39.0092L105.301 39.2321H106.489L107.281 38.8606L107.598 38.4891L107.678 38.3405V37.7461L107.44 37.3746L106.727 37.003L105.063 36.4829L103.954 36.1114L103.241 35.6656L102.765 35.1455L102.527 34.6253V33.5851L102.844 32.8421L103.399 32.2476L104.033 31.8761L104.746 31.6532L105.301 31.5789Z" fill="#272D4E"/>
<path d="M64.5749 47.1826H65.7634L66.0803 47.4798L66.1596 47.7027V49.5603L65.8426 49.8575L64.258 49.9318H55.1462L54.8292 49.7832L54.6708 49.4117V48.5944L54.9085 48.1485L56.4931 47.9256L61.2471 47.4798L64.5749 47.1826Z" fill="#272D4E"/>
<path d="M12.598 24.743H13.6281L14.3412 24.9659L15.0543 25.5603L15.6881 26.6006L16.7182 28.3839L17.4313 29.2755L17.9859 29.7956L19.0952 30.39L19.8082 30.613L20.4421 30.6873H21.3137L22.3437 30.5387L23.6114 30.1671L24.8792 29.647L25.2753 29.4241H25.513L25.7507 30.0928V30.4643L24.483 31.0588L22.9776 31.5789L21.5514 31.8018H20.1252L18.8575 31.5789L17.5897 30.9845L16.5597 30.2414L15.8466 29.4984L15.6881 29.1269L14.975 29.2012L14.0242 29.3498H11.7265L11.4888 29.1269L11.2511 28.6811V28.3096L13.7865 28.1609L14.8166 28.0123L14.1827 26.8235L13.7865 26.3034L13.3904 26.0805L12.598 26.0062L11.4096 26.2291L10.9342 26.3777L10.538 26.3034L10.1418 25.7832L10.2211 25.486L11.568 24.9659L12.598 24.743Z" fill="#272D4E"/>
<path d="M112.194 29.2012H112.749L113.224 29.4241L113.303 29.647V31.7275H114.333L115.839 31.8018L116.156 32.0247L116.235 32.4705L115.997 32.9164L115.918 32.9907L113.303 33.065V37.5975L113.382 38.4891L113.541 38.7863L114.016 39.0835L114.333 39.1578H115.046L115.759 39.0835L116.156 39.455V39.9752L115.522 40.3467L114.729 40.4953H113.858L112.907 40.1981L112.273 39.678L111.877 38.9349L111.798 38.6377V32.9907H110.926L110.451 32.6191V32.1733L110.847 31.8018H111.798V29.4984L112.035 29.2755L112.194 29.2012Z" fill="#272D4E"/>
<path d="M40.8842 24.3715L41.2804 24.4458L41.835 24.8173V25.1888L41.4389 25.5603L40.5673 26.6006L39.5373 27.7894L39.458 27.938H39.2996L39.1411 28.2353L38.9034 28.5325H38.7449L38.5865 28.8297L37.5564 29.7956L36.7641 30.3157L35.9718 30.613H35.1002L34.6248 30.39L33.991 29.7213L33.5948 28.7554L33.5156 27.8637L31.4555 28.2353L30.1085 28.6068L28.4446 29.2755L27.1769 29.9442H26.9392L26.7808 29.3498V28.8297L28.9993 27.7894L30.5839 27.195L32.3271 26.7492L34.0702 26.452L34.7041 26.3777L34.9417 26.6006L35.021 27.938L35.1795 28.6811L35.3379 29.0526L35.5756 29.2012L36.1302 29.1269L36.8433 28.6811L37.7941 27.8637L38.0318 27.5665H38.1903L38.3488 27.2693L39.2203 26.3777L40.0919 25.3374L40.7258 24.5944L40.8842 24.3715Z" fill="#272D4E"/>
<path d="M66.1595 8.69349H66.4765V9.95664L66.3972 10.1052L63.7033 11.0712L61.564 11.8885L60.9302 12.1857L60.8509 12.4087L62.2771 12.3343L64.4164 12.0371L64.9711 11.9628L65.1295 12.1114L65.0503 13.0031L64.6541 13.1517L62.0394 13.5232L58.7116 13.6718L57.5232 13.8947L56.3347 14.2662L55.8593 14.4891L55.5423 14.3405L55.0669 13.7461L54.9085 13.3746L58.5532 11.6656L61.6433 10.4025L63.7826 9.58512L66.0011 8.76779L66.1595 8.69349Z" fill="#272D4E"/>
<path d="M119.008 31.6532L119.721 31.8761L119.8 32.0247L119.88 33.5108L120.593 32.6934L121.306 32.099L122.098 31.7275L122.415 31.6532H123.128L123.603 32.099V32.6934L123.207 32.9907L121.86 33.3622L121.147 33.808L120.513 34.4767L120.117 35.2941L119.88 36.7058L119.8 39.9752L119.642 40.2724L119.325 40.421L118.77 40.3467L118.374 39.9752V32.0247L118.691 31.7275L119.008 31.6532Z" fill="#272D4E"/>
<path d="M24.0076 23.4798H24.4038L25.0376 24.1486L24.7207 24.4458L22.8983 25.1888L21.4721 25.9318L20.6798 26.5263L20.2836 26.9721L20.2044 27.2693L20.4421 27.7151L20.9967 27.8637H21.7891L23.136 27.6408L24.3245 27.2693L25.9884 26.6006L26.86 26.2291H27.2562L27.89 26.8235V26.9721L26.6223 27.5665L25.1169 28.2353L23.2153 28.8297L21.9475 29.0526H20.3629L19.6498 28.8297L19.0159 28.3096L18.7782 27.7894V27.1207L19.1744 26.3777L19.729 25.7832L20.9967 24.8916L22.2645 24.2229L24.0076 23.4798Z" fill="#272D4E"/>
<path d="M39.0619 22.7368L39.3788 22.8111L39.8542 23.1826L40.0127 23.4055L39.9334 23.7027L38.428 24.2972L37.081 24.6687L36.2887 24.8173H34.0702L30.9009 24.5201H30.1085L28.4446 24.743L27.1769 25.1145L26.86 24.9659L26.4638 24.5201V24.2229L27.0184 23.9257L27.8108 23.5541L29.1577 23.2569L29.8708 23.1826H31.1386L34.0702 23.4798H36.3679L37.7941 23.1826L38.9826 22.8111L39.0619 22.7368Z" fill="#272D4E"/>
<path d="M152.92 31.6532L153.474 31.7275L153.87 32.0247L153.95 32.3962V39.8266L153.712 40.1981L153.474 40.421H152.999L152.523 40.1238L152.365 39.7523V32.3962L152.523 31.9504L152.92 31.6532Z" fill="#272D4E"/>
<path d="M98.962 31.6532L99.4374 31.7275L99.8336 32.0247V40.0495L99.3582 40.421H98.8828L98.4074 40.0495L98.3281 39.8266V32.1733L98.6451 31.8018L98.962 31.6532Z" fill="#272D4E"/>
<path d="M126.218 31.6532L126.852 31.8761L127.01 32.0247V39.9752L126.614 40.421H126.06L125.584 40.0495V32.0247L125.901 31.7275L126.218 31.6532Z" fill="#272D4E"/>
<path d="M50.1545 19.6904L50.6299 19.839L51.343 20.582L52.0561 21.3993L52.6107 21.9195L53.3238 22.7368L54.5915 24L54.75 24.2972L54.9877 24.3715L55.5423 24.9659L58.8701 28.0866L59.504 28.6068L59.9794 29.0526V29.4241L59.504 29.3498L58.3947 28.6068L57.2855 27.7894L56.4139 27.1207L55.5423 26.3777L54.9085 25.8575L53.6407 24.6687L52.9276 23.8514L52.0561 22.8854L51.026 21.4737L50.3922 20.5077L50.0753 19.9133L50.1545 19.6904Z" fill="#272D4E"/>
<path d="M172.728 28.5325L173.203 28.6068L173.362 28.7554L173.283 29.4241L172.886 30.0928L172.49 30.4643L172.094 30.613H171.46L170.589 30.39L169.479 30.0185H169.083L168.37 30.7616L167.895 30.8359L167.657 30.5387L167.736 29.8699L168.212 29.1269L168.766 28.7554L169.479 28.6811L170.668 29.0526L171.539 29.3498L172.015 29.2755L172.411 28.7554L172.728 28.5325Z" fill="#272D4E"/>
<path d="M10.8549 9.80803L11.1719 9.95664L11.8849 10.774L12.8357 11.9628L13.6281 13.1517L13.945 13.5975L13.8658 14.0433L13.3904 14.5634L13.1527 14.8607L12.915 14.7864L12.1226 13.226L11.1719 11.5913L10.538 10.6254L10.4588 10.5511V10.1796L10.8549 9.80803Z" fill="#272D4E"/>
<path d="M31.1386 18.13H36.1302L36.2887 18.2786L36.5264 18.873V19.1702H30.5839L30.6632 18.7987L31.1386 18.13Z" fill="#272D4E"/>
<path d="M15.0543 4.68111L15.4504 4.75541L15.3712 5.12693L14.8166 5.86996L13.7865 7.43033L12.915 8.69349L12.598 8.84209V8.69349L12.2811 8.54488L12.1226 8.24767L13.0734 6.61299L14.0242 5.57275L14.4204 5.20123L15.0543 4.68111Z" fill="#272D4E"/>
<path d="M4.27858 4.68111L4.83321 4.75541L6.10094 5.34984L7.13097 6.01857L8.161 6.91021L8.55716 7.35603L8.24023 7.95045L7.9233 7.87615L7.05174 7.20742L6.02171 6.39008L4.91245 5.57275L4.27858 4.97832V4.68111Z" fill="#272D4E"/>
<path d="M8.3987 11.8142H8.8741L9.11179 12.0371L9.19103 12.4086L8.79486 12.6316L5.22938 13.7461L4.59551 13.969L4.27858 13.8947L4.35781 13.5975L4.99168 13.0774L6.49711 12.3343L7.76483 11.9628L8.3987 11.8142Z" fill="#272D4E"/>
<path d="M35.5756 4.23529L36.2887 4.30959L36.8433 4.6068L37.0018 4.75541V5.12693L36.2887 5.72135L35.4171 6.16717L35.1002 6.01857L34.7833 5.64705L34.7041 5.12693L35.1002 4.5325L35.3379 4.30959L35.5756 4.23529Z" fill="#272D4E"/>
<path d="M152.84 28.4582L153.554 28.5325L153.95 28.8297L154.029 28.9783V29.5727L153.712 30.0185L153.395 30.1671H152.92L152.524 29.9442L152.286 29.5727V28.9783L152.682 28.5325L152.84 28.4582Z" fill="#272D4E"/>
<path d="M125.98 28.4582L126.614 28.5325L127.09 28.8297L127.169 29.0526V29.5727L126.694 30.0928L126.535 30.1671H125.98L125.584 29.8699L125.347 29.3498L125.505 28.8297L125.98 28.4582Z" fill="#272D4E"/>
<path d="M98.8036 28.4582L99.5166 28.5325L99.9128 28.904L99.992 29.0526V29.5727L99.5166 30.0928L99.3582 30.1671H98.8036L98.4074 29.8699L98.2489 29.647V28.904L98.8036 28.4582Z" fill="#272D4E"/>
<path d="M23.6114 7.50463L24.1661 7.57894L24.8792 8.02476V8.39627L24.1661 8.9907L23.453 9.21361L23.136 9.065L22.8983 8.76779V8.24767L23.2153 7.80185L23.6114 7.50463Z" fill="#272D4E"/>
<path d="M26.3054 14.2662L26.9392 14.3405L27.4939 14.7121V15.1579L26.7808 15.8266L26.4638 15.9752L25.9092 15.9009L25.6715 15.6037V14.8607L25.9884 14.4148L26.3054 14.2662Z" fill="#272D4E"/>
</svg>
